# xmcd CD database file
#
# Track frame offsets:
#	150
#	14180
#	29093
#	43703
#	58860
#	75308
#	90740
#	105233
#	120498
#	135693
#
# Disc length: 2041 seconds
#
# Revision: 0
# Processed by: cddbd v1.4PL0 Copyright (c) Steve Scherf et al.
# Submitted via: CDex 1.50
#
DISCID=8007f70a
DTITLE=Zack Hexum - Introducing....
DYEAR=1998
DGENRE=Jazz
TTITLE0=I Forget
TTITLE1=Last Night's Dream
TTITLE2=What The Hell
TTITLE3=Bheme's Theme
TTITLE4=The Architer Strikes
TTITLE5=Hective
TTITLE6=Orion
TTITLE7=You Don't Have to Close Your Eyes
TTITLE8=Call Home
TTITLE9=Park Piece
EXTD=YEAR: 1998
EXTT0=
EXTT1=
EXTT2=
EXTT3=
EXTT4=
EXTT5=
EXTT6=
EXTT7=
EXTT8=
EXTT9=
PLAYORDER=
